<?xml version="1.0" standalone="no"?>
<!DOCTYPE svg PUBLIC "-//W3C//DTD SVG 20010904//EN"
 "http://www.w3.org/TR/2001/REC-SVG-20010904/DTD/svg10.dtd">
<svg version="1.0" xmlns="http://www.w3.org/2000/svg"
 width="500.000000pt" height="500.000000pt" viewBox="0 0 500.000000 500.000000"
 preserveAspectRatio="xMidYMid meet">

<g transform="translate(0.000000,500.000000) scale(0.100000,-0.100000)"
fill="#000000" stroke="none">
<path d="M160 4640 c0 -347 1 -361 20 -380 18 -18 33 -20 163 -20 113 0 147 3
165 16 l22 15 0 365 0 364 -185 0 -185 0 0 -360z"/>
<path d="M710 4862 c0 -94 4 -142 12 -150 17 -17 319 -17 336 0 8 8 12 56 12
150 l0 138 -180 0 -180 0 0 -138z"/>
<path d="M1250 4439 c0 -367 4 -567 10 -580 10 -18 23 -19 176 -19 l164 0 10
26 c6 15 10 244 10 580 l0 554 -185 0 -185 0 0 -561z"/>
<path d="M1800 4182 c0 -623 3 -821 12 -830 17 -17 319 -17 336 0 9 9 12 207
12 830 l0 818 -180 0 -180 0 0 -818z"/>
<path d="M2900 4182 c0 -623 3 -821 12 -830 8 -8 60 -12 169 -12 152 0 158 1
173 22 14 20 16 115 16 830 l0 808 -185 0 -185 0 0 -818z"/>
<path d="M3450 4432 c0 -428 3 -571 12 -580 8 -8 60 -12 168 -12 108 0 160 4
168 12 9 9 12 152 12 580 l0 568 -180 0 -180 0 0 -568z"/>
<path d="M3990 4877 c0 -175 -9 -167 189 -167 109 0 161 4 169 12 8 8 12 55
12 145 l0 133 -185 0 -185 0 0 -123z"/>
<path d="M4540 4641 c0 -314 2 -362 16 -375 23 -23 315 -23 338 0 14 13 16 61
16 375 l0 359 -185 0 -185 0 0 -359z"/>
<path d="M2390 2500 l0 -530 1125 0 1125 0 0 530 0 530 -1125 0 -1125 0 0
-530z m562 348 c63 -27 130 -100 158 -174 30 -77 33 -251 6 -329 -38 -109
-107 -173 -218 -201 -165 -43 -318 25 -384 168 -27 59 -29 71 -29 193 0 113 3
136 22 178 47 101 125 166 225 187 60 12 164 2 220 -22z m579 -5 c9 -10 50
-84 92 -165 56 -111 76 -142 80 -127 3 12 4 81 3 154 -2 73 0 139 5 147 6 9
31 13 81 13 119 0 108 37 108 -360 l0 -345 -26 -10 c-32 -13 -125 -13 -157 -1
-19 7 -46 50 -109 168 l-83 158 -3 -160 c-2 -112 -6 -161 -15 -167 -14 -9
-138 -11 -161 -2 -14 5 -16 46 -16 359 0 273 3 355 13 359 6 3 48 4 92 1 58
-3 84 -9 96 -22z m984 4 c3 -12 5 -52 3 -87 l-3 -65 -102 -3 -103 -3 0 -54 0
-55 69 0 c78 0 81 -3 81 -75 0 -72 -3 -75 -81 -75 l-69 0 0 -55 0 -55 99 0
c61 0 102 -4 106 -11 9 -14 10 -119 1 -146 -7 -23 -9 -23 -201 -23 -116 0
-196 4 -200 10 -7 12 -7 699 1 711 3 5 93 9 199 9 194 0 195 0 200 -23z"/>
<path d="M2754 2661 c-89 -54 -83 -276 9 -319 57 -27 121 5 147 73 17 44 15
156 -4 193 -35 68 -94 88 -152 53z"/>
<path d="M459 2849 c-13 -25 -17 -102 -6 -141 l7 -27 109 -3 108 -3 -123 -190
c-135 -206 -130 -192 -93 -290 l20 -55 213 0 c251 0 241 -4 241 105 0 100 -5
105 -121 105 -52 0 -94 2 -94 5 0 2 52 83 115 179 85 127 115 182 115 205 0
41 -28 109 -51 121 -10 6 -109 10 -223 10 -199 0 -206 -1 -217 -21z"/>
<path d="M1142 2508 l3 -363 198 -3 197 -2 10 25 c11 29 13 98 4 133 -6 21
-11 22 -110 22 l-104 0 0 50 0 49 73 3 72 3 8 50 c6 32 5 60 -2 78 -10 26 -13
27 -81 27 l-70 0 0 50 0 49 103 3 102 3 9 47 c5 28 5 64 0 90 l-9 43 -203 3
-202 2 2 -362z"/>
<path d="M1708 2863 c-10 -2 -18 -6 -18 -8 0 -2 50 -100 110 -218 l110 -214 0
-131 c0 -155 -2 -152 112 -152 125 0 118 -8 118 141 l0 129 111 222 c84 168
107 223 97 229 -19 13 -173 11 -202 -2 -19 -9 -35 -37 -68 -115 -23 -57 -45
-104 -48 -104 -3 0 -14 24 -25 53 -53 152 -55 155 -87 166 -30 11 -175 13
-210 4z"/>
<path d="M2947 1723 c-4 -3 -7 -393 -7 -865 l0 -858 175 0 175 0 0 839 c0 522
-4 849 -10 865 l-10 26 -158 0 c-87 0 -162 -3 -165 -7z"/>
<path d="M1832 1658 c-9 -9 -12 -208 -12 -835 l0 -823 180 0 180 0 2 783 c3
886 3 854 -13 873 -15 19 -318 21 -337 2z"/>
<path d="M3472 1248 c-9 -9 -12 -163 -12 -630 l0 -618 175 0 175 0 -2 620 c-3
539 -5 622 -18 630 -23 15 -303 13 -318 -2z"/>
<path d="M1286 1154 c-14 -14 -16 -81 -16 -585 l0 -569 185 0 185 0 0 565 c0
552 0 565 -20 585 -18 18 -33 20 -169 20 -123 0 -152 -3 -165 -16z"/>
<path d="M4512 858 c-9 -9 -12 -119 -12 -435 l0 -423 175 0 175 0 0 413 c0
357 -2 416 -16 435 -14 21 -22 22 -163 22 -101 0 -151 -4 -159 -12z"/>
<path d="M191 741 c-20 -20 -21 -30 -21 -381 l0 -360 185 0 185 0 0 363 c0
210 -4 368 -10 377 -7 12 -40 16 -164 18 -145 3 -156 2 -175 -17z"/>
<path d="M3998 429 c-16 -9 -18 -31 -18 -219 l0 -210 175 0 175 0 0 200 c0
256 12 240 -177 240 -76 0 -146 -5 -155 -11z"/>
<path d="M736 284 c-13 -12 -16 -41 -16 -150 l0 -134 185 0 185 0 0 134 c0
109 -3 138 -16 150 -23 23 -315 23 -338 0z"/>
</g>
</svg>
